<?xml version="1.0" encoding="utf-8"?>
<!-- Generator: Adobe Illustrator 27.5.0, SVG Export Plug-In . SVG Version: 6.00 Build 0)  -->
<svg version="1.1" xmlns="http://www.w3.org/2000/svg" xmlns:xlink="http://www.w3.org/1999/xlink" x="0px" y="0px"
	 viewBox="0 0 500 500" style="enable-background:new 0 0 500 500;" xml:space="preserve">
<g id="BACKGROUND">
	<rect style="fill:#7A8AFF;" width="500" height="500"/>
</g>
<g id="OBJECTS">
	<g>
		<g>
			<path style="fill:none;stroke:#FFFFFF;stroke-miterlimit:10;" d="M383.373,179.805h-32.342c-0.755,0-1.368,0.612-1.368,1.368
				v21.514c0,0.755,0.612,1.368,1.368,1.368h1.657c0.34,0,0.615,0.275,0.615,0.615v2.919c0,0.472,0.571,0.709,0.905,0.375
				l3.729-3.729c0.115-0.115,0.272-0.18,0.435-0.18h25.001c0.755,0,1.368-0.612,1.368-1.368v-21.514
				C384.741,180.417,384.128,179.805,383.373,179.805z"/>
			<g>
				<circle style="fill:#FFFFFF;" cx="357.693" cy="191.93" r="2.352"/>
				<path style="fill:#FFFFFF;" d="M369.554,191.93c0,1.299-1.053,2.352-2.352,2.352c-1.299,0-2.352-1.053-2.352-2.352
					c0-1.299,1.053-2.352,2.352-2.352C368.501,189.578,369.554,190.631,369.554,191.93z"/>
				<path style="fill:#FFFFFF;" d="M379.063,191.93c0,1.299-1.053,2.352-2.352,2.352c-1.299,0-2.352-1.053-2.352-2.352
					c0-1.299,1.053-2.352,2.352-2.352C378.01,189.578,379.063,190.631,379.063,191.93z"/>
			</g>
		</g>
		<g>
			<path style="fill:#0E0063;" d="M314.353,214.597c0,0-2.251,7.526,1.608,9.327c3.859,1.801,1.801-8.169,1.801-8.169"/>
			<path style="fill:#FFC1CD;" d="M301.305,282.08c0,0-0.12,0.1-0.33,0.29c-1.01,0.87-4.22,3.54-7.62,5.24
				c-1.45,0.73-2.93,1.29-4.3,1.46c-5.25,0.65-35.59,3.01-35.59,3.01c-1-2-1.58-6.65-1.58-6.65s29.25-11.1,30.92-11.85
				c0.65-0.3,1.52-0.86,2.34-1.44c1.27-0.89,2.41-1.81,2.41-1.81l13.41,11.46L301.305,282.08z"/>
			<path style="fill:#ED7E93;" d="M300.975,282.37c-1.01,0.87-4.22,3.54-7.62,5.24c-3.82-5.26-7.25-13.18-8.21-15.47
				c1.27-0.89,2.41-1.81,2.41-1.81l13.41,11.46C300.975,281.96,300.975,282.16,300.975,282.37z"/>
			<g>
				<path style="fill:#FAC8D7;" d="M263.376,407.616l-0.811,1.752l-1.683,3.651l-4.091,8.383c0,0-3.944,1.513-8.383,1.266
					c-2.015-0.116-3.79-1.011-4.847-1.976l1.166-6.337l0.903-4.909l1.729-6.847L263.376,407.616z"/>
				<polygon style="fill:#ED7E93;" points="262.565,409.368 260.883,413.019 244.727,414.354 245.63,409.445 254.438,408.426 				
					"/>
				<path style="fill:#6273FF;" d="M331.624,304.555l-3.597,20.694l-31.508,32.211l-6.87,7.024l-6.6,11.802l-20.317,35.403
					l-18.527-1.752c0,0,12.625-51.437,17.18-61.627c7.206-11.434,41.471-41.331,41.471-41.331L331.624,304.555z"/>
				<path style="fill:#546AED;" d="M302.254,320.332l-5.735,37.128l-6.87,7.024l-6.6,11.802c-2.647-5.843-6.785-16.518-5.172-23.249
					C280.194,343.389,302.254,320.332,302.254,320.332z"/>
				<path style="fill:#0E0063;" d="M256.792,421.399c0,0-8.27,0.414-13.233-0.709c0,0-17.052,6.361-19.672,8.271
					c-1.934,1.41-0.745,3.493,1.972,3.493h31.405C257.264,432.453,259.686,426.715,256.792,421.399z"/>
			</g>
			<g>
				
					<rect x="242.63" y="309.507" transform="matrix(-1 -1.224647e-16 1.224647e-16 -1 493.2674 749.1324)" style="fill:#342A99;" width="8.007" height="130.118"/>
				<path style="fill:#342A99;" d="M213.255,439.625h67.138v-2.818c0-2.405-1.949-4.354-4.354-4.354h-58.43
					c-2.405,0-4.354,1.949-4.354,4.354V439.625z"/>
			</g>
			<g>
				<path style="fill:#231E7C;" d="M373.61,439.625h-3.019L365.12,409.4h-62.688l-5.471,30.225h-3.019l17.359-95.964
					c0.15-0.804,0.922-1.34,1.726-1.198c0.812,0.15,1.348,0.922,1.198,1.726l-11.258,62.239h61.616l-11.257-62.239
					c-0.15-0.804,0.386-1.577,1.19-1.726c0.812-0.15,1.585,0.386,1.726,1.198l10.879,60.103l0.536,2.988l0.355,1.939l0.552,3.027
					L373.61,439.625z"/>
				<path style="fill:#4242A5;" d="M360.235,439.625h-3.019l-5.471-30.225h-62.688l-5.471,30.225h-3.019l17.359-95.964
					c0.15-0.804,0.922-1.34,1.726-1.198c0.812,0.15,1.348,0.922,1.198,1.726l-11.258,62.239h61.616l-11.257-62.239
					c-0.15-0.804,0.386-1.577,1.19-1.726c0.812-0.15,1.585,0.386,1.726,1.198l10.879,60.103l0.536,2.988l0.355,1.939l0.552,3.027
					L360.235,439.625z"/>
				<path style="fill:#231E7C;" d="M370.385,291.499c-5-10.294-20.722-9.984-20.722-9.984l-6.265,53.466
					c-3.501-0.11-7.341-0.141-11.37-0.141c-16.329,0-29.567,0.5-29.567,4.785c0,4.285,13.237,10.734,29.567,10.734
					c12.148,0,22.58-3.569,27.128-7.161l0.002,0c0.007-0.005,0.014-0.012,0.021-0.018c0.252-0.2,0.485-0.399,0.699-0.598
					c2.741-2.455,2.005-7.67,4.007-12.748C369.609,315.311,373.125,297.138,370.385,291.499z"/>
			</g>
			<g>
				<polygon style="fill:#FAC8D7;" points="324.77,426.436 321.667,433.468 313.941,430.666 309.41,422.136 307.858,419.211 
					304.763,413.468 320.27,409.06 322.076,416.023 				"/>
				<polygon style="fill:#ED7E93;" points="322.076,416.023 309.41,422.136 307.858,419.211 304.763,413.468 320.27,409.06 				"/>
				<path style="fill:#0E0063;" d="M324.769,426.434c0,0-3.047,2.823-10.828,4.232c0,0-10.598,3.851-12.801,4.687
					c-3.153,1.195-4.261,4.272,1.417,4.272h24.739c1.13,0,2.05-0.914,2.05-2.044C329.345,434.878,328.719,430.037,324.769,426.434z"
					/>
			</g>
			<path style="fill:#6273FF;" d="M351.385,308c0,0,7.17,13.257-0.875,24.75c-5.528,7.897-38.541,24.999-38.541,24.999
				l10.821,56.189l-18.411,5.048c0,0-21.11-54.289-22.397-63.295c-1.286-9.005,28.572-47.085,28.572-47.085L351.385,308z"/>
			<path style="fill:#FFFFFF;" d="M320.839,245.738c0,0-5.993,3.254-12.444,7.353c-6.451,4.098-22.37,17.483-22.37,17.483
				s8.824,11.912,12.902,16.469l7.511-4.151c0,0-1.431,9.89-2.317,16.319c-1.831,5.342-2.217,6.21-1.266,7.766
				c0,0,11.156,6.966,23.945,7.514c19.905,0.853,25.952-3.216,25.952-3.216s1.257-1.354,1.576-3.942
				c0.354-2.865-0.224-7.019-0.208-7.599c0.156-5.882,0.763-11.074,1.255-17.347c0.911-11.612,3.302-24.704-2.732-31.08
				c-6.034-6.375-16.963-8.801-16.963-8.801L320.839,245.738z"/>
			<g>
				<path style="fill:#CECECE;" d="M305.472,289.619c0,0,0.116-1.578,0.379-3.931c0.146-1.174,0.284-2.549,0.491-4.013
					c0.206-1.464,0.426-3.026,0.646-4.588c0.254-1.557,0.509-3.113,0.747-4.572c0.235-1.46,0.515-2.813,0.724-3.978
					c0.448-2.325,0.808-3.865,0.808-3.865s-0.114,1.578-0.378,3.931c-0.147,1.174-0.282,2.549-0.492,4.013
					c-0.207,1.464-0.427,3.026-0.647,4.588c-0.255,1.556-0.509,3.113-0.748,4.572c-0.237,1.46-0.515,2.813-0.725,3.978
					C305.831,288.078,305.472,289.619,305.472,289.619z"/>
			</g>
			<g>
				<path style="fill:#CECECE;" d="M336.011,256.696c0,0-2.547,4.184-5.095,8.367c-1.268,2.092-2.535,4.184-3.486,5.752
					c-0.476,0.787-0.872,1.444-1.15,1.903c-0.285,0.457-0.449,0.717-0.449,0.717s0.114-0.286,0.315-0.785
					c0.213-0.494,0.493-1.212,0.9-2.04c0.398-0.832,0.865-1.802,1.415-2.816c0.542-1.018,1.161-2.081,1.796-3.133
					c0.643-1.048,1.309-2.082,1.961-3.032c0.648-0.953,1.297-1.812,1.846-2.553C335.18,257.608,336.011,256.696,336.011,256.696z"/>
			</g>
			<g>
				<path style="fill:#CECECE;" d="M344.904,284.854c0,0,0.547-1.149,1.418-2.839c0.439-0.842,0.952-1.825,1.501-2.878
					c0.56-1.045,1.158-2.16,1.756-3.275c2.423-4.446,4.845-8.891,4.845-8.891s-0.382,1.215-1.121,2.974
					c-0.385,0.871-0.819,1.897-1.342,2.967c-0.518,1.072-1.105,2.198-1.703,3.318c-0.613,1.111-1.23,2.22-1.844,3.24
					c-0.603,1.025-1.213,1.955-1.717,2.762C345.662,283.831,344.904,284.854,344.904,284.854z"/>
			</g>
			<path style="fill:#FFC1CD;" d="M318.744,252.186c-1.084-2.987,2.25-5.547,2.25-5.547c-0.046-0.264-0.1-0.565-0.155-0.902
				c-0.401-2.441-0.929-6.439-0.929-6.439l7.878-4.772l4.818-2.915c0,0,4.045,9.893,4.901,12.042
				C338.362,245.795,319.828,255.182,318.744,252.186z"/>
			<path style="fill:#ED7E93;" d="M331.622,235.72c0,0-2.78,7.618-10.724,10.373c-0.401-2.441-0.988-6.794-0.988-6.794l7.878-4.772
				L331.622,235.72z"/>
			<path style="fill:#FFC1CD;" d="M314.922,218.178c0,0-3.719,18.443,2.884,22.769c6.603,4.326,15.559-5.616,17.001-10.853
				c1.442-5.237,3.339-13.813-1.138-16.773C329.664,210.674,317.426,209.223,314.922,218.178z"/>
			<path style="fill:none;stroke:#ED7E93;stroke-width:0.2998;stroke-linecap:round;stroke-miterlimit:10;" d="M320.947,235.653
				c0,0-1.109,0.338-2.79,0.226c-0.955-0.064-1.547-0.316-1.547-0.316"/>
			<path style="fill:#0E0063;" d="M321.039,219.951c4.518,0.676,5.454,0.041,5.454,0.041s-0.802,4.321,2.201,6.102
				c2.766,1.64,5.528,9.475,5.528,9.475s2.834-5.776,4.249-10.729s2.444-10.099-1.544-12.157c0,0-1.417-5.058-8.896-5.854
				c-3.732-0.397-7.042,0.802-10.771,1.796c-3.62,0.965-6.127,0.037-6.74,1.433C309.713,211.896,311.76,218.563,321.039,219.951z"/>
			<g>
				<g>
					<path style="fill:#0E0063;" d="M322.299,227.395c-0.028,0.532,0.206,0.977,0.522,0.993c0.316,0.016,0.595-0.401,0.623-0.934
						c0.028-0.532-0.206-0.977-0.522-0.993C322.605,226.445,322.326,226.863,322.299,227.395z"/>
					<g>
						<path style="fill:#0E0063;" d="M325.315,226.13c-0.04,0.04-0.09,0.07-0.14,0.07c-0.05,0-0.1-0.02-0.13-0.06
							c-0.01-0.01-0.95-0.73-1.92-0.82c-0.76-0.07-1.15,0.25-1.32,0.48l-0.01,0.01c-0.045,0.072-0.18,0.15-0.29,0.09
							c-0.12-0.08-0.064-0.272-0.01-0.35c0.01-0.01,0.01-0.02,0.01-0.02c0.24-0.35,0.74-0.81,1.65-0.73c1.1,0.1,2.11,1.02,2.15,1.06
							C325.385,225.93,325.385,226.06,325.315,226.13z"/>
					</g>
				</g>
				<g>
					<path style="fill:#0E0063;" d="M315.49,227.135c-0.028,0.532,0.206,0.977,0.522,0.993c0.316,0.017,0.595-0.401,0.623-0.934
						c0.028-0.532-0.206-0.977-0.522-0.993C315.796,226.185,315.518,226.603,315.49,227.135z"/>
					<g>
						<path style="fill:#0E0063;" d="M318.456,225.84c-0.08,0.07-0.2,0.08-0.28,0c-0.01,0-0.85-0.7-1.82-0.79
							c-0.67-0.06-1.07,0.19-1.27,0.41c0,0-0.01,0.01-0.02,0.01c-0.071,0.068-0.262,0.109-0.34,0.03c-0.07-0.07-0.03-0.19,0.01-0.27
							c0.03-0.05,0.05-0.08,0.05-0.08c0.27-0.32,0.75-0.67,1.56-0.61c1.1,0.1,2.06,0.99,2.1,1.02
							C318.525,225.64,318.525,225.76,318.456,225.84z"/>
					</g>
				</g>
			</g>
			<g>
				
					<ellipse style="fill:none;stroke:#FFFFFF;stroke-width:0.5;stroke-miterlimit:10;" cx="315.652" cy="226.938" rx="2.875" ry="3.313"/>
				
					<ellipse style="fill:none;stroke:#FFFFFF;stroke-width:0.5;stroke-miterlimit:10;" cx="323.4" cy="226.938" rx="2.875" ry="3.313"/>
				<path style="fill:none;stroke:#FFFFFF;stroke-width:0.5;stroke-miterlimit:10;" d="M318.527,226.655c0,0,0.911-0.428,2.01,0"/>
				
					<line style="fill:none;stroke:#FFFFFF;stroke-width:0.5;stroke-miterlimit:10;" x1="326.275" y1="226.938" x2="328.719" y2="225.495"/>
			</g>
			<path style="fill:#FFC1CD;" d="M328.164,225.723c0,0,2.291-2.815,4.277-0.935c2.959,2.801-1.592,8.957-3.635,7.632
				C326.764,231.097,327.042,229.068,328.164,225.723z"/>
			<g>
				<path style="fill:#FFC1CD;" d="M342.717,284.633c0,0-0.88,1.552-2.323,3.798c-3.643,5.666-10.899,15.785-16.781,16.842
					c-8.228,1.482-42.454-2.632-42.454-2.632v-8.313l33.639-3.173l11.748-15.831l0.54-0.726L342.717,284.633z"/>
				<path style="fill:#FFC1CD;" d="M283.629,294.093c0,0-2.361,0.171-5.558-0.636c-2.484-0.627-3.972-1.19-6.802-1.833
					c-2.83-0.643-9.264,1.384-10.422,1.641c-1.158,0.257-0.485,1.766,1.56,2.115c2.123,0.362,6.367,0.672,6.367,0.672
					s2.681,7.198,4.759,7.874c2.078,0.675,5.31-0.981,7.626-1.286C283.474,302.334,283.629,294.093,283.629,294.093z"/>
				<path style="fill:#FFC1CD;" d="M269.797,294.905c0,0-5.577,1.435-7.333,2.05c-1.495,0.523-6.958,2.384-7.127,2.774
					c-0.369,0.85,1.027,1.581,2.359,1.608c2.959,0.061,3.922-0.539,5.308-0.724c1.386-0.185,9.277-0.868,9.277-0.868"/>
				<path style="fill:#FFC1CD;" d="M271.126,297.654c0,0-7.177,1.667-8.933,2.282c-1.495,0.523-5.132,2.785-5.302,3.175
					c-0.369,0.85,1.013,1.401,2.307,1.083c1.294-0.318,3.914-1.612,5.3-1.797c1.386-0.185,6.192-0.826,6.192-0.826"/>
				<path style="fill:#FFC1CD;" d="M272.496,299.421c0,0-5.096,1.196-6.852,1.811c-1.495,0.523-5.132,2.785-5.302,3.175
					c-0.369,0.85,1.013,1.401,2.307,1.083c1.294-0.318,3.914-1.612,5.3-1.797c1.386-0.185,6.192-0.826,6.192-0.826"/>
				<path style="fill:#FFC1CD;" d="M276.579,300.177c0,0-5.096,1.196-6.852,1.811c-1.495,0.523-5.132,2.785-5.302,3.175
					c-0.369,0.85,1.013,1.401,2.307,1.083c1.294-0.318,4.936-1.388,6.321-1.572c1.386-0.185,5.339-1.349,5.339-1.349"/>
			</g>
			<g>
				<g>
					<g>
						<g>
							<path style="fill:#ED7E93;" d="M330.468,225.55c-0.463,1.262-0.358,2.801,0.515,3.869c0.129,0.158,0.36-0.043,0.272-0.21
								c-0.614-1.164-0.871-2.278-0.455-3.568C330.869,225.428,330.544,225.345,330.468,225.55L330.468,225.55z"/>
						</g>
					</g>
					<g>
						<g>
							<path style="fill:#ED7E93;" d="M331.294,226.351c-0.595,0.373-1.02,1.064-0.904,1.783c0.028,0.173,0.317,0.171,0.348,0
								c0.11-0.617,0.268-1.092,0.772-1.503C331.667,226.503,331.464,226.245,331.294,226.351L331.294,226.351z"/>
						</g>
					</g>
				</g>
				<path style="fill:none;stroke:#ED7E93;stroke-width:0.3859;stroke-linecap:round;stroke-miterlimit:10;" d="M318.779,227.922
					c0,0-1.178,2.166-1.237,3.563c-0.026,0.596,0.309,1,0.769,1.121"/>
			</g>
			<path style="fill:#ED7E93;" d="M342.717,284.633c0,0-0.88,1.552-2.323,3.798c-5.148-3.489-13.848-13.107-13.848-13.107
				l0.54-0.726L342.717,284.633z"/>
			<g>
				<path style="fill:#3C37A3;" d="M197.995,309.507h97.659c1.834,0,3.321-1.487,3.321-3.321l0,0c0-1.834-1.487-3.321-3.321-3.321
					h-97.659c-1.834,0-3.321,1.487-3.321,3.321l0,0C194.674,308.021,196.161,309.507,197.995,309.507z"/>
				<linearGradient id="SVGID_1_" gradientUnits="userSpaceOnUse" x1="250.6512" y1="255.6666" x2="250.6512" y2="234.3296">
					<stop  offset="0" style="stop-color:#FFFFFF"/>
					<stop  offset="1" style="stop-color:#F0F1F1;stop-opacity:0"/>
				</linearGradient>
				<polygon style="opacity:0.25;fill:url(#SVGID_1_);" points="250.874,233 293.577,233 250.428,256.655 207.725,256.655 				"/>
				
					<linearGradient id="SVGID_00000031194553532641330870000012436282078591800198_" gradientUnits="userSpaceOnUse" x1="256.702" y1="275.1652" x2="300.86" y2="263.5655">
					<stop  offset="0" style="stop-color:#FFFFFF"/>
					<stop  offset="1" style="stop-color:#F0F1F1;stop-opacity:0"/>
				</linearGradient>
				<polygon style="opacity:0.25;fill:url(#SVGID_00000031194553532641330870000012436282078591800198_);" points="250.428,256.655 
					293.577,233 308.868,293.94 265.801,299.448 				"/>
				<path style="fill:#00216A;" d="M267.733,302.866H221.09l-14.333-45.911c-0.122-0.391,0.17-0.788,0.58-0.788h43.193
					c0.256,0,0.485,0.161,0.571,0.402L267.733,302.866z"/>
				<path style="fill:#00216A;" d="M292.838,302.866h-48.493v-3.128l46.498,1.085C291.952,300.849,292.838,301.756,292.838,302.866
					L292.838,302.866z"/>
			</g>
		</g>
		<g>
			<g>
				<path style="fill:#E3E8FF;" d="M207.725,277.495c-6.261,7.57,0,13.631,0,13.631S213.986,285.065,207.725,277.495z"/>
				<path style="fill:#E3E8FF;" d="M202.501,278.551c-2.854,9.4,5.26,12.575,5.26,12.575S211.199,283.119,202.501,278.551z"/>
				<path style="fill:#E3E8FF;" d="M212.986,278.551c2.854,9.4-5.26,12.575-5.26,12.575S204.289,283.119,212.986,278.551z"/>
				<path style="fill:#E3E8FF;" d="M217.435,281.559c-0.999,9.773-9.71,9.566-9.71,9.566S207.648,282.412,217.435,281.559z"/>
				<path style="fill:#E3E8FF;" d="M198.015,281.559c0.999,9.773,9.71,9.566,9.71,9.566S207.802,282.412,198.015,281.559z"/>
			</g>
			<polygon style="fill:#ACB7FF;" points="212.58,302.866 202.87,302.866 199.945,288.984 215.506,288.984 			"/>
		</g>
		<g>
			<path style="fill:#00216A;" d="M224.99,218.369H77.573c-2.278,0-4.125-1.847-4.125-4.125v-85.453
				c0-2.278,1.847-4.125,4.125-4.125H224.99c2.278,0,4.125,1.847,4.125,4.125v85.453
				C229.115,216.522,227.268,218.369,224.99,218.369z"/>
			<path style="fill:#7A8AFF;" d="M152.986,213.884h-72.43c-1.187,0-2.149-0.962-2.149-2.149v-72.43
				c0-1.187,0.962-2.149,2.149-2.149h72.43c1.187,0,2.149,0.962,2.149,2.149v72.43C155.135,212.922,154.173,213.884,152.986,213.884
				z"/>
			
				<line style="fill:none;stroke:#7A8AFF;stroke-linecap:round;stroke-miterlimit:10;" x1="78.407" y1="132.375" x2="224.156" y2="132.375"/>
			<path style="fill:#7A8AFF;" d="M222.104,128.594c0,0.811-0.658,1.469-1.469,1.469s-1.469-0.658-1.469-1.469
				c0-0.811,0.658-1.469,1.469-1.469S222.104,127.783,222.104,128.594z"/>
			<path style="fill:#7A8AFF;" d="M216.104,128.594c0,0.811-0.658,1.469-1.469,1.469s-1.469-0.658-1.469-1.469
				c0-0.811,0.658-1.469,1.469-1.469S216.104,127.783,216.104,128.594z"/>
			<path style="fill:#7A8AFF;" d="M210.104,128.594c0,0.811-0.658,1.469-1.469,1.469s-1.469-0.658-1.469-1.469
				c0-0.811,0.658-1.469,1.469-1.469S210.104,127.783,210.104,128.594z"/>
			<g>
				<path style="fill:#7A8AFF;" d="M219.984,149.422h-54.926c-1.154,0-2.089-0.935-2.089-2.089l0,0c0-1.154,0.935-2.089,2.089-2.089
					h54.926c1.154,0,2.089,0.935,2.089,2.089l0,0C222.073,148.487,221.138,149.422,219.984,149.422z"/>
				<path style="fill:#7A8AFF;" d="M220.968,159.91h-56.864c-0.627,0-1.136-0.509-1.136-1.136v-0.198
					c0-0.627,0.509-1.136,1.136-1.136h56.864c0.627,0,1.136,0.508,1.136,1.136v0.198C222.104,159.402,221.596,159.91,220.968,159.91
					z"/>
				<path style="fill:#7A8AFF;" d="M220.87,166.607h-56.666c-0.682,0-1.235-0.553-1.235-1.235l0,0c0-0.682,0.553-1.235,1.235-1.235
					h56.666c0.682,0,1.235,0.553,1.235,1.235l0,0C222.104,166.054,221.551,166.607,220.87,166.607z"/>
				<path style="fill:#7A8AFF;" d="M220.87,173.303h-56.666c-0.682,0-1.235-0.553-1.235-1.235l0,0c0-0.682,0.553-1.235,1.235-1.235
					h56.666c0.682,0,1.235,0.553,1.235,1.235l0,0C222.104,172.75,221.551,173.303,220.87,173.303z"/>
				<path style="fill:#7A8AFF;" d="M220.87,180h-56.666c-0.682,0-1.235-0.553-1.235-1.235l0,0c0-0.682,0.553-1.235,1.235-1.235
					h56.666c0.682,0,1.235,0.553,1.235,1.235l0,0C222.104,179.447,221.551,180,220.87,180z"/>
				<path style="fill:#7A8AFF;" d="M220.87,186.696h-56.666c-0.682,0-1.235-0.553-1.235-1.235l0,0c0-0.682,0.553-1.235,1.235-1.235
					h56.666c0.682,0,1.235,0.553,1.235,1.235l0,0C222.104,186.143,221.551,186.696,220.87,186.696z"/>
				<path style="fill:#7A8AFF;" d="M220.87,193.393h-56.666c-0.682,0-1.235-0.553-1.235-1.235l0,0c0-0.682,0.553-1.235,1.235-1.235
					h56.666c0.682,0,1.235,0.553,1.235,1.235l0,0C222.104,192.84,221.551,193.393,220.87,193.393z"/>
				<path style="fill:#7A8AFF;" d="M211.344,200.089h-47.14c-0.682,0-1.235-0.553-1.235-1.235l0,0c0-0.682,0.553-1.235,1.235-1.235
					h47.14c0.682,0,1.235,0.553,1.235,1.235l0,0C212.578,199.536,212.025,200.089,211.344,200.089z"/>
			</g>
			<path style="fill:#C0CCFF;" d="M114.067,154.032l-0.033-0.129c-0.169-1.135,0.192-2.267,0.877-3.206
				c0.276-0.384,0.395-0.767,0.301-1.137c-0.229-1.14-2.179-1.706-4.343-1.257c-2.145,0.445-3.72,1.747-3.472,2.882
				c0.075,0.373,0.33,0.682,0.723,0.916c1.013,0.588,1.786,1.472,2.094,2.611l0.098,0.387c0.15,0.591-0.144,1.215-0.711,1.456
				c-0.742,0.326-1.457,0.683-2.157,1.096c-0.474-0.94-0.49-2.016-0.239-3.041c0.104-0.439,0.08-0.845-0.137-1.163
				c-0.64-0.977-2.647-0.763-4.499,0.452c-1.852,1.215-2.817,2.99-2.177,3.967c0.218,0.318,0.56,0.506,1.008,0.569
				c1.127,0.186,2.153,0.672,2.829,1.561c-0.658,0.579-1.266,1.204-1.827,1.856c-0.428,0.481-1.152,0.566-1.68,0.189l-0.652-0.483
				c-1.083-0.786-1.746-2.012-1.944-3.336c-0.08-0.549-0.307-0.982-0.682-1.221c-1.133-0.754-3.198,0.397-4.618,2.543
				c-1.397,2.159-1.625,4.514-0.497,5.25c0.379,0.257,0.878,0.288,1.39,0.139c1.305-0.35,2.691-0.229,3.842,0.441l0.948,0.565
				c0.532,0.317,0.769,0.944,0.54,1.513c-0.321,0.826-0.595,1.681-0.786,2.552l-0.373-0.067c-1.145-0.205-2.096-0.922-2.767-1.872
				c-0.264-0.373-0.594-0.609-0.972-0.656c-1.154-0.145-2.314,1.514-2.59,3.707c-0.275,2.192,0.437,4.087,1.592,4.233
				c0.378,0.048,0.757-0.1,1.104-0.396c0.886-0.754,1.984-1.212,3.145-1.128l0.36,0.026c-0.052,0.953-0.003,1.92,0.105,2.891
				c0.09,0.664-0.366,1.271-1.044,1.383c-0.872,0.122-1.708-0.157-2.425-0.662c-0.287-0.202-0.564-0.289-0.864-0.233
				c-0.858,0.178-1.274,1.637-0.937,3.28c0.351,1.619,1.319,2.808,2.177,2.63c0.277-0.07,0.502-0.265,0.686-0.547
				c0.455-0.763,1.127-1.365,1.976-1.579l0.222-0.056c0.604-0.173,1.237,0.158,1.465,0.748c0.339,0.876,0.771,1.729,1.249,2.531
				v0.001l-2.009,1.207c-0.997,0.599-2.184,0.686-3.315,0.413c-0.444-0.107-0.848-0.068-1.164,0.146
				c-0.965,0.65-0.745,2.663,0.491,4.495c1.236,1.832,3.02,2.79,3.984,2.139c0.316-0.214,0.504-0.573,0.571-1.025
				c0.17-1.151,0.695-2.219,1.624-2.92l1.932-1.456c0.639,0.741,1.347,1.445,2.096,2.079c0.495,0.405,0.585,1.147,0.19,1.679
				l-0.455,0.606c-0.818,1.111-2.049,1.755-3.405,1.981c-0.526,0.094-0.941,0.316-1.185,0.673c-0.749,1.151,0.402,3.216,2.543,4.618
				c2.165,1.415,4.519,1.644,5.255,0.516c0.253-0.398,0.288-0.878,0.153-1.413c-0.364-1.282-0.243-2.667,0.427-3.819l0.56-0.966
				c0.317-0.532,0.967-0.756,1.535-0.526c0.611,0.238,1.229,0.435,1.862,0.609c0.004,0.001,0.007,0.001,0.011,0.003l-0.538,2.095
				c-0.289,1.126-1.073,2.022-2.07,2.622c-0.392,0.236-0.651,0.548-0.726,0.922c-0.23,1.141,1.34,2.419,3.507,2.855
				c2.166,0.436,4.109-0.136,4.338-1.276c0.075-0.374-0.044-0.762-0.313-1.13c-0.687-0.939-1.063-2.068-0.894-3.219l0.33-2.245
				c0.003,0,0.005,0.001,0.008,0.001c0.845,0.081,1.69,0.083,2.562,0.038c0.642-0.025,1.188,0.426,1.291,1.068l0.306,1.906
				c0.249,1.684-0.267,3.366-1.27,4.758c-0.395,0.532-0.565,1.105-0.447,1.645c0.341,1.661,3.178,2.474,6.329,1.814
				c3.155-0.641,5.426-2.531,5.084-4.192c-0.117-0.54-0.487-0.996-1.061-1.322c-1.48-0.882-2.619-2.203-3.058-3.859l-0.579-2.209
				c-0.145-0.572,0.131-1.192,0.674-1.447c0.544-0.255,1.079-0.548,1.59-0.854c0.529,0.926,0.624,2.001,0.401,3.059
				c-0.105,0.439-0.044,0.836,0.174,1.154c0.672,0.949,2.684,0.675,4.475-0.622c1.797-1.28,2.71-3.101,2.024-4.027
				c-0.218-0.318-0.578-0.501-1.04-0.542c-1.076-0.14-2.111-0.585-2.824-1.386c0.654-0.597,1.275-1.245,1.845-1.94
				c0.423-0.5,1.166-0.59,1.693-0.213l0.171,0.133c0.944,0.703,1.487,1.764,1.684,2.931c0.08,0.471,0.27,0.835,0.598,1.046
				c0.985,0.634,2.778-0.35,4.01-2.232c1.231-1.882,1.424-3.914,0.434-4.566c-0.31-0.216-0.73-0.247-1.173-0.135
				c-1.144,0.289-2.358,0.224-3.376-0.382l-0.411-0.23c-0.532-0.317-0.755-0.967-0.526-1.535c0.279-0.68,0.513-1.386,0.705-2.103
				c0.577,0.266,1.041,0.777,1.352,1.385c0.148,0.276,0.357,0.479,0.629,0.548c0.799,0.21,1.766-0.859,2.167-2.374
				c0.402-1.515,0.07-2.904-0.729-3.114c-0.254-0.073-0.531-0.003-0.803,0.164c-0.627,0.394-1.332,0.631-2.062,0.541
				c0.172-1.261,0.201-2.544,0.086-3.85c-0.048-0.655,0.393-1.238,1.039-1.323l0.812-0.127c1.325-0.197,2.641,0.196,3.723,0.982
				c0.439,0.34,0.906,0.477,1.354,0.384c1.324-0.276,1.987-2.545,1.449-5.059c-0.52-2.519-2.021-4.338-3.344-4.062
				c-0.429,0.089-0.807,0.381-1.064,0.839c-0.703,1.179-1.766,2.096-3.09,2.451l-2.08,0.546c-0.354-0.932-0.771-1.807-1.24-2.651
				c0.585-0.247,1.25-0.258,1.915-0.112c0.314,0.077,0.582,0.049,0.817-0.108c0.668-0.464,0.488-1.871-0.388-3.161
				c-0.89-1.267-2.156-1.928-2.825-1.464c-0.217,0.153-0.35,0.403-0.386,0.726c-0.077,0.628-0.315,1.238-0.729,1.696
				c-0.718-0.898-1.496-1.722-2.338-2.49c-0.481-0.428-0.548-1.157-0.166-1.666l1.214-1.642c1.016-1.415,2.611-2.25,4.327-2.528
				c0.664-0.09,1.199-0.382,1.511-0.854c0.947-1.457-0.501-4.074-3.257-5.889c-2.733-1.802-5.73-2.084-6.677-0.627
				c-0.331,0.476-0.371,1.095-0.179,1.773c0.439,1.656,0.291,3.401-0.572,4.876l-1.231,2.117c-0.299,0.527-0.931,0.746-1.49,0.554
				c-0.365-0.123-0.73-0.247-1.09-0.352c0.235-0.315,0.543-0.569,0.861-0.787c0.272-0.167,0.437-0.366,0.474-0.611
				c0.141-0.762-0.914-1.594-2.36-1.877c-1.441-0.264-2.732,0.142-2.873,0.904c-0.036,0.245,0.029,0.503,0.228,0.747
				c0.232,0.295,0.413,0.622,0.501,0.973c-1.334-0.153-2.696-0.181-4.076-0.048C114.763,155.152,114.157,154.697,114.067,154.032z
				 M104.705,163.351c0.382-0.431,0.801-0.792,1.22-1.074c1.106-0.751,2.3-1.073,3.243-0.84c0.369,0.063,0.702,0.215,0.985,0.477
				c1.268,1.132,0.896,3.621-0.829,5.569c-1.748,1.934-4.179,2.569-5.447,1.437C102.609,167.788,102.98,165.299,104.705,163.351z
				 M115.903,166.407c1.289-0.954,3.049-0.752,3.939,0.436c0.871,1.193,0.507,2.934-0.783,3.889
				c-1.313,0.941-3.067,0.756-3.939-0.437C114.249,169.102,114.595,167.366,115.903,166.407z M100.565,180.811
				c-0.444-1.91,0.225-3.689,1.484-3.988c1.246-0.276,2.62,1.045,3.064,2.955c0.444,1.909-0.22,3.707-1.484,3.987
				C102.388,184.06,101.013,182.739,100.565,180.811z M110.831,181.197c-0.281-1.342,0.579-2.679,1.921-2.959
				c1.365-0.267,2.683,0.597,2.964,1.939c0.285,1.361-0.579,2.679-1.939,2.964C112.435,183.422,111.094,182.544,110.831,181.197z
				 M108.712,190.43c-1.697-0.964-2.694-2.42-2.22-3.266c0.478-0.827,2.232-0.722,3.929,0.243c1.697,0.964,2.694,2.42,2.22,3.267
				C112.163,191.5,110.409,191.395,108.712,190.43z M118.799,187.544c1.938-0.333,3.68,0.423,3.905,1.701
				c0.221,1.259-1.174,2.574-3.112,2.908c-1.919,0.329-3.68-0.423-3.9-1.683C115.466,189.192,116.866,187.896,118.799,187.544z
				 M129.704,185.177c-0.423,0.5-0.898,0.875-1.395,1.158c-0.715,0.436-1.453,0.623-2.08,0.546
				c-0.402-0.036-0.753-0.183-1.031-0.426c-1.078-0.925-0.803-3.017,0.609-4.65c1.413-1.634,3.447-2.207,4.506-1.278
				C131.392,181.451,131.116,183.543,129.704,185.177z M134.622,174.744c0.029,0.581-0.02,1.163-0.11,1.657
				c-0.228,1.196-0.779,2.043-1.471,2.1c-0.019,0.005-0.019,0.005-0.037,0.009c-0.988,0.054-1.883-1.545-1.986-3.58
				c-0.103-2.036,0.626-3.732,1.614-3.786C133.642,171.105,134.519,172.709,134.622,174.744z M123.4,174.62
				c0.992,1.438,0.407,3.549-1.316,4.731c-1.704,1.177-3.897,0.967-4.889-0.471c-0.992-1.437-0.412-3.567,1.311-4.749
				C120.21,172.953,122.403,173.164,123.4,174.62z M105.788,177.016c-1.27-0.444-1.889-2.035-1.354-3.564
				c0.517-1.525,1.987-2.388,3.276-1.949c1.271,0.445,1.889,2.035,1.353,3.564C108.547,176.592,107.077,177.455,105.788,177.016z
				 M130.145,163.803c0.116,0.148,0.227,0.277,0.343,0.424c0.56,0.742,0.904,1.558,1.017,2.314c0.169,0.978-0.018,1.87-0.644,2.42
				c-1.192,1.029-3.428,0.416-5.008-1.403c-1.593-1.795-1.904-4.112-0.73-5.135C126.311,161.378,128.552,162.008,130.145,163.803z
				 M122.332,161.403c-0.218,1.155-2.312,1.724-4.663,1.279c-2.369-0.441-4.095-1.752-3.877-2.906
				c0.218-1.155,2.312-1.724,4.663-1.278c0.286,0.045,0.559,0.114,0.836,0.201c0.254,0.073,0.49,0.151,0.73,0.247
				C121.533,159.564,122.501,160.516,122.332,161.403z"/>
		</g>
		<g>
			<path style="fill:#FFFFFF;" d="M250.404,231.612H142.95c-1.693,0-3.065-1.372-3.065-3.065v-17.362
				c0-1.693,1.372-3.065,3.065-3.065h107.454c1.693,0,3.065,1.372,3.065,3.065v17.362
				C253.469,230.24,252.097,231.612,250.404,231.612z"/>
			<g>
				
					<text transform="matrix(1 0 0 1 151.3025 224.8179)" style="fill:#00216A; font-family:'Montserrat-ExtraBold'; font-size:14.282px;">INFODEMIC!</text>
			</g>
		</g>
		<g>
			
				<ellipse transform="matrix(0.3889 -0.9213 0.9213 0.3889 64.2354 354.026)" style="fill:#FFFFFF;" cx="298.975" cy="128.594" rx="26.271" ry="26.271"/>
			<circle style="fill:#6273FF;" cx="298.975" cy="128.594" r="23.127"/>
			<g>
				<g>
					<path style="fill:#FFFFFF;" d="M298.975,129.631c-0.573,0-1.037-0.465-1.037-1.037v-14.696c0-0.573,0.465-1.037,1.037-1.037
						c0.573,0,1.037,0.464,1.037,1.037v14.696C300.012,129.166,299.547,129.631,298.975,129.631z"/>
				</g>
				<g>
					<path style="fill:#FFFFFF;" d="M298.241,127.782c0.405-0.405,1.062-0.405,1.467,0l7.547,7.547c0.405,0.405,0.405,1.062,0,1.467
						c-0.405,0.405-1.062,0.405-1.467,0l-7.547-7.547C297.836,128.844,297.836,128.187,298.241,127.782z"/>
				</g>
				<g>
					<path style="fill:#FFFFFF;" d="M298.975,110.085c-0.286,0-0.519-0.232-0.519-0.518v-2.674c0-0.286,0.232-0.519,0.519-0.519
						c0.286,0,0.519,0.232,0.519,0.519v2.674C299.493,109.853,299.261,110.085,298.975,110.085z"/>
				</g>
				<g>
					<path style="fill:#FFFFFF;" d="M312.429,115.658c-0.133,0-0.266-0.051-0.366-0.152c-0.203-0.202-0.203-0.531,0-0.733
						l1.89-1.891c0.203-0.203,0.531-0.203,0.734,0c0.202,0.202,0.202,0.531,0,0.733l-1.891,1.891
						C312.694,115.608,312.562,115.658,312.429,115.658z"/>
				</g>
				<g>
					<path style="fill:#FFFFFF;" d="M320.676,129.112h-2.674c-0.287,0-0.518-0.232-0.518-0.519c0-0.286,0.232-0.518,0.518-0.518
						h2.674c0.287,0,0.518,0.232,0.518,0.518C321.194,128.88,320.962,129.112,320.676,129.112z"/>
				</g>
				<g>
					<path style="fill:#FFFFFF;" d="M314.32,144.457c-0.132,0-0.265-0.051-0.367-0.152l-1.89-1.891
						c-0.203-0.202-0.203-0.531,0-0.733c0.202-0.203,0.531-0.203,0.733,0l1.891,1.891c0.202,0.202,0.202,0.531,0,0.733
						C314.585,144.407,314.452,144.457,314.32,144.457z"/>
				</g>
				<g>
					<path style="fill:#FFFFFF;" d="M298.975,150.814c-0.286,0-0.519-0.232-0.519-0.519v-2.674c0-0.286,0.232-0.519,0.519-0.519
						c0.286,0,0.519,0.232,0.519,0.519v2.674C299.493,150.581,299.261,150.814,298.975,150.814z"/>
				</g>
				<g>
					<path style="fill:#FFFFFF;" d="M283.63,144.457c-0.133,0-0.266-0.051-0.366-0.152c-0.203-0.202-0.203-0.531,0-0.733
						l1.891-1.891c0.202-0.203,0.531-0.203,0.733,0c0.203,0.202,0.203,0.531,0,0.733l-1.891,1.891
						C283.895,144.407,283.762,144.457,283.63,144.457z"/>
				</g>
				<g>
					<path style="fill:#FFFFFF;" d="M279.948,129.112h-2.674c-0.286,0-0.518-0.232-0.518-0.519c0-0.286,0.232-0.518,0.518-0.518
						h2.674c0.286,0,0.518,0.232,0.518,0.518C280.466,128.88,280.234,129.112,279.948,129.112z"/>
				</g>
				<g>
					<path style="fill:#FFFFFF;" d="M285.521,115.658c-0.133,0-0.266-0.051-0.367-0.152l-1.891-1.891
						c-0.203-0.202-0.203-0.53,0-0.733c0.202-0.203,0.531-0.203,0.733,0l1.891,1.891c0.203,0.202,0.203,0.531,0,0.733
						C285.786,115.608,285.654,115.658,285.521,115.658z"/>
				</g>
			</g>
		</g>
		<g>
			<g>
				<path style="opacity:0.5;fill:#FFFFFF;" d="M188.44,246.607v22.979c0,0.717-0.575,1.292-1.291,1.292H164.17
					c-0.708,0-1.291-0.575-1.291-1.292v-22.979c0-0.708,0.583-1.291,1.291-1.291h22.979
					C187.865,245.316,188.44,245.899,188.44,246.607z"/>
				<path style="fill:#FFFFFF;" d="M188.44,264.453v5.132c0,0.713-0.578,1.292-1.291,1.292H164.17c-0.713,0-1.291-0.578-1.291-1.292
					v-3.983l6.345-9.552c0.33-0.497,1.06-0.497,1.39,0l7.003,10.535l5.431-8.172c0.329-0.495,1.056-0.495,1.385,0L188.44,264.453z"
					/>
				<path style="fill:#FFFFFF;" d="M187.148,250.941c0,1.984-1.609,3.593-3.593,3.593c-1.984,0-3.593-1.609-3.593-3.593
					c0-1.984,1.609-3.593,3.593-3.593C185.539,247.348,187.148,248.957,187.148,250.941z"/>
			</g>
			<path style="fill:#FFFFFF;" d="M186.863,275.967h-22.406c-0.871,0-1.578-0.706-1.578-1.578l0,0c0-0.871,0.707-1.578,1.578-1.578
				h22.406c0.871,0,1.578,0.706,1.578,1.578l0,0C188.44,275.261,187.734,275.967,186.863,275.967z"/>
			<path style="fill:#FFFFFF;" d="M186.863,281.205h-22.406c-0.871,0-1.578-0.706-1.578-1.578l0,0c0-0.871,0.707-1.578,1.578-1.578
				h22.406c0.871,0,1.578,0.706,1.578,1.578l0,0C188.44,280.499,187.734,281.205,186.863,281.205z"/>
		</g>
		<g>
			<g>
				<path style="fill:#FFFFFF;" d="M143.245,244.05c1.119,0,2.03,0.911,2.03,2.03v5.411l-29.894,12.361
					c-0.239,0.096-0.488,0.145-0.741,0.145s-0.502-0.049-0.733-0.142l-29.902-12.365v-5.411c0-1.119,0.911-2.03,2.03-2.03H143.245
					 M143.245,243.05h-57.21c-1.67,0-3.03,1.35-3.03,3.03v6.08l30.52,12.62c0.36,0.145,0.738,0.217,1.115,0.217
					c0.378,0,0.755-0.073,1.115-0.217l30.52-12.62v-6.08C146.275,244.4,144.915,243.05,143.245,243.05L143.245,243.05z"/>
			</g>
			<g>
				<path style="fill:#FFFFFF;" d="M84.006,255.816l28.371,11.73c0.736,0.302,1.496,0.455,2.259,0.455
					c0.77,0,1.533-0.153,2.272-0.456l28.368-11.729v25.444c0,1.114-0.911,2.02-2.03,2.02h-57.21c-1.119,0-2.03-0.906-2.03-2.02
					V255.816 M146.275,254.32l-29.75,12.3c-0.61,0.25-1.25,0.38-1.89,0.38c-0.63,0-1.27-0.13-1.88-0.38l-29.75-12.3v26.94
					c0,1.67,1.36,3.02,3.03,3.02h57.21c1.67,0,3.03-1.35,3.03-3.02V254.32L146.275,254.32z"/>
			</g>
			<path style="fill:#FF554D;" d="M139.885,243.333c0,3.682-2.985,6.667-6.667,6.667c-3.682,0-6.667-2.985-6.667-6.667
				s2.985-6.667,6.667-6.667C136.901,236.667,139.885,239.651,139.885,243.333z"/>
			<g>
				<path style="fill:#FFFFFF;" d="M132.553,240.741v5.591h-1.582v-4.369h-1.039v-1.222H132.553z"/>
				<path style="fill:#FFFFFF;" d="M135.788,240.741v5.591h-1.581v-4.369h-1.039v-1.222H135.788z"/>
			</g>
		</g>
		<g>
			<path style="fill:none;stroke:#FFFFFF;stroke-miterlimit:10;" d="M176.453,323.585c-0.572,0-1.092,0.475-1.487,1.256
				c-0.35,0.692-1.027,1.158-1.803,1.158h-0.6c-1.001,0-1.853-0.707-2.058-1.686c-0.506-2.417-1.457-4.669-2.763-6.67
				c-0.549-0.84-0.448-1.943,0.261-2.653l0.256-0.256c0.606-0.606,1.507-0.754,2.309-0.452c0.914,0.343,1.697,0.339,2.132-0.096
				c0.874-0.873,0.017-3.146-1.912-5.075s-4.202-2.786-5.075-1.912c-0.404,0.404-0.436,1.108-0.164,1.939
				c0.242,0.737,0.093,1.545-0.456,2.094l-0.425,0.424c-0.709,0.709-1.813,0.81-2.653,0.261c-2-1.306-4.253-2.257-6.67-2.763
				c-0.979-0.205-1.686-1.058-1.686-2.058v-0.362c0-0.857,0.533-1.598,1.313-1.953c0.889-0.404,1.439-0.96,1.439-1.575
				c0-1.235-2.212-2.236-4.941-2.236c-2.729,0-4.941,1.001-4.941,2.236c0,0.572,0.475,1.092,1.256,1.487
				c0.692,0.35,1.158,1.027,1.158,1.803v0.6c0,1.001-0.707,1.853-1.686,2.058c-2.417,0.506-4.669,1.457-6.67,2.763
				c-0.84,0.548-1.943,0.448-2.653-0.261l-0.256-0.256c-0.606-0.606-0.754-1.507-0.452-2.309c0.343-0.914,0.339-1.697-0.096-2.132
				c-0.874-0.873-3.146-0.017-5.075,1.912c-1.93,1.93-2.786,4.202-1.912,5.075c0.404,0.404,1.108,0.436,1.939,0.163
				c0.737-0.242,1.545-0.093,2.094,0.456l0.425,0.425c0.709,0.709,0.81,1.813,0.261,2.653c-1.306,2-2.257,4.253-2.763,6.67
				c-0.205,0.979-1.058,1.686-2.058,1.686h-0.361c-0.857,0-1.598-0.533-1.953-1.313c-0.404-0.889-0.96-1.439-1.575-1.439
				c-1.235,0-2.236,2.212-2.236,4.941c0,2.729,1.001,4.941,2.236,4.941c0.572,0,1.092-0.475,1.487-1.256
				c0.35-0.692,1.027-1.158,1.803-1.158h0.6c1.001,0,1.853,0.707,2.058,1.686c0.506,2.417,1.457,4.669,2.763,6.67
				c0.549,0.84,0.448,1.943-0.261,2.653l-0.256,0.256c-0.606,0.606-1.507,0.754-2.309,0.452c-0.914-0.343-1.697-0.339-2.132,0.096
				c-0.873,0.873-0.017,3.146,1.912,5.075c1.93,1.93,4.202,2.786,5.075,1.913c0.404-0.404,0.436-1.108,0.163-1.939
				c-0.242-0.737-0.092-1.545,0.456-2.094l0.424-0.424c0.709-0.709,1.813-0.81,2.653-0.261c2,1.306,4.253,2.257,6.67,2.763
				c0.979,0.205,1.686,1.058,1.686,2.058v0.361c0,0.857-0.533,1.598-1.313,1.953c-0.889,0.404-1.439,0.96-1.439,1.575
				c0,1.235,2.212,2.237,4.941,2.237c2.729,0,4.941-1.001,4.941-2.237c0-0.572-0.475-1.092-1.256-1.487
				c-0.692-0.35-1.158-1.027-1.158-1.803v-0.6c0-1.001,0.707-1.853,1.686-2.058c2.417-0.506,4.669-1.457,6.67-2.763
				c0.84-0.549,1.943-0.448,2.653,0.261l0.256,0.256c0.606,0.606,0.754,1.507,0.452,2.31c-0.343,0.914-0.339,1.697,0.096,2.132
				c0.873,0.874,3.146,0.017,5.075-1.912c1.93-1.93,2.786-4.202,1.912-5.075c-0.404-0.404-1.108-0.436-1.939-0.163
				c-0.737,0.242-1.545,0.092-2.094-0.456l-0.425-0.424c-0.709-0.709-0.81-1.813-0.261-2.653c1.306-2,2.257-4.253,2.763-6.67
				c0.205-0.979,1.058-1.686,2.058-1.686h0.361c0.857,0,1.598,0.533,1.953,1.313c0.404,0.889,0.96,1.439,1.575,1.439
				c1.235,0,2.236-2.212,2.236-4.941C178.69,325.797,177.688,323.585,176.453,323.585z"/>
			<circle style="fill:none;stroke:#FFFFFF;stroke-miterlimit:10;" cx="149.319" cy="330.844" r="5.063"/>
			<path style="fill:none;stroke:#FFFFFF;stroke-miterlimit:10;" d="M160.8,337.773c0,1.389-1.126,2.516-2.516,2.516
				c-1.39,0-2.516-1.126-2.516-2.516c0-1.389,1.126-2.516,2.516-2.516C159.674,335.257,160.8,336.384,160.8,337.773z"/>
			<path style="fill:none;stroke:#FFFFFF;stroke-miterlimit:10;" d="M145.878,340.013c0,0.896-0.726,1.621-1.621,1.621
				c-0.895,0-1.621-0.726-1.621-1.621c0-0.895,0.726-1.621,1.621-1.621C145.152,338.392,145.878,339.118,145.878,340.013z"/>
			<path style="fill:none;stroke:#FFFFFF;stroke-miterlimit:10;" d="M159.252,318.294c0,2.137-1.732,3.869-3.869,3.869
				c-2.137,0-3.869-1.732-3.869-3.869c0-2.137,1.732-3.869,3.869-3.869C157.52,314.425,159.252,316.157,159.252,318.294z"/>
			<path style="fill:none;stroke:#FFFFFF;stroke-miterlimit:10;" d="M164.311,328.145c0,0.895-0.726,1.621-1.621,1.621
				s-1.621-0.726-1.621-1.621c0-0.896,0.726-1.621,1.621-1.621S164.311,327.249,164.311,328.145z"/>
			<circle style="fill:none;stroke:#FFFFFF;stroke-miterlimit:10;" cx="139.53" cy="323.822" r="2.701"/>
		</g>
		<g>
			
				<ellipse transform="matrix(0.2311 -0.9729 0.9729 0.2311 39.2997 418.6758)" style="fill:#FF554D;" cx="284.523" cy="184.475" rx="13.144" ry="13.144"/>
			<g>
				<path style="fill:#FFFFFF;" d="M285.868,193.604h-2.69c-0.319,0-0.577-0.258-0.577-0.577v-2.69c0-0.318,0.258-0.577,0.577-0.577
					h2.69c0.318,0,0.577,0.258,0.577,0.577v2.69C286.445,193.346,286.187,193.604,285.868,193.604z"/>
				<path style="fill:#FFFFFF;" d="M282.495,176.688h4.055c0.326,0,0.585,0.275,0.566,0.6l-0.64,10.82
					c-0.018,0.299-0.266,0.533-0.566,0.533h-2.775c-0.3,0-0.548-0.234-0.566-0.533l-0.64-10.82
					C281.911,176.962,282.169,176.688,282.495,176.688z"/>
			</g>
		</g>
		<g>
			<path style="fill:#FFFFFF;" d="M392.234,272.813h-5.698c-0.367,0-0.664-0.297-0.664-0.664v-5.697
				c0-0.367,0.297-0.664,0.664-0.664h5.698c0.367,0,0.664,0.297,0.664,0.664v5.697C392.898,272.516,392.6,272.813,392.234,272.813z"
				/>
			<path style="fill:#FFFFFF;" d="M401.632,272.813h-5.698c-0.367,0-0.664-0.297-0.664-0.664v-5.697
				c0-0.367,0.297-0.664,0.664-0.664h5.698c0.367,0,0.664,0.297,0.664,0.664v5.697C402.296,272.516,401.998,272.813,401.632,272.813
				z"/>
			<path style="fill:#FFFFFF;" d="M411.029,272.813h-5.697c-0.367,0-0.664-0.297-0.664-0.664v-5.697
				c0-0.367,0.297-0.664,0.664-0.664h5.697c0.367,0,0.664,0.297,0.664,0.664v5.697C411.694,272.516,411.396,272.813,411.029,272.813
				z"/>
		</g>
		<g>
			<path style="fill:#FFFFFF;" d="M89.367,330.036H83.67c-0.367,0-0.664-0.297-0.664-0.664v-5.697c0-0.367,0.297-0.664,0.664-0.664
				h5.698c0.367,0,0.664,0.297,0.664,0.664v5.697C90.031,329.739,89.734,330.036,89.367,330.036z"/>
			<path style="fill:#FFFFFF;" d="M98.765,330.036h-5.698c-0.367,0-0.664-0.297-0.664-0.664v-5.697c0-0.367,0.297-0.664,0.664-0.664
				h5.698c0.367,0,0.664,0.297,0.664,0.664v5.697C99.429,329.739,99.132,330.036,98.765,330.036z"/>
			<path style="fill:#FFFFFF;" d="M108.163,330.036h-5.698c-0.367,0-0.664-0.297-0.664-0.664v-5.697
				c0-0.367,0.297-0.664,0.664-0.664h5.698c0.367,0,0.664,0.297,0.664,0.664v5.697C108.827,329.739,108.53,330.036,108.163,330.036z
				"/>
		</g>
		<g>
			<path style="fill:#FFFFFF;" d="M243.879,158.378h-5.698c-0.367,0-0.664-0.297-0.664-0.664v-5.697
				c0-0.367,0.297-0.664,0.664-0.664h5.698c0.367,0,0.664,0.297,0.664,0.664v5.697C244.543,158.081,244.246,158.378,243.879,158.378
				z"/>
			<path style="fill:#FFFFFF;" d="M253.277,158.378h-5.698c-0.367,0-0.664-0.297-0.664-0.664v-5.697
				c0-0.367,0.297-0.664,0.664-0.664h5.698c0.367,0,0.664,0.297,0.664,0.664v5.697C253.941,158.081,253.644,158.378,253.277,158.378
				z"/>
			<path style="fill:#FFFFFF;" d="M262.675,158.378h-5.698c-0.367,0-0.664-0.297-0.664-0.664v-5.697
				c0-0.367,0.297-0.664,0.664-0.664h5.698c0.367,0,0.664,0.297,0.664,0.664v5.697C263.339,158.081,263.042,158.378,262.675,158.378
				z"/>
		</g>
		<g>
			<circle style="opacity:0.7;fill:#FFFFFF;" cx="120.529" cy="384" r="3.386"/>
			<circle style="fill:#A0B0FF;" cx="445.166" cy="287.61" r="3.386"/>
			<circle style="fill:#A0B0FF;" cx="398.783" cy="110.085" r="3.386"/>
			<circle style="fill:#A0B0FF;" cx="374.359" cy="66.457" r="2.124"/>
			<path style="opacity:0.7;fill:#FFFFFF;" d="M87.253,98c0,1.173-0.951,2.124-2.124,2.124c-1.173,0-2.124-0.951-2.124-2.124
				c0-1.173,0.951-2.124,2.124-2.124C86.302,95.876,87.253,96.827,87.253,98z"/>
			<path style="fill:#A0B0FF;" d="M164.137,399.446c0,1.173-0.951,2.124-2.124,2.124c-1.173,0-2.124-0.951-2.124-2.124
				c0-1.173,0.951-2.124,2.124-2.124C163.186,397.322,164.137,398.273,164.137,399.446z"/>
			<circle style="fill:#A0B0FF;" cx="392.898" cy="358.122" r="3.386"/>
			<circle style="opacity:0.7;fill:#FFFFFF;" cx="448.552" cy="175.621" r="3.386"/>
			<circle style="fill:#A0B0FF;" cx="221.887" cy="82.252" r="3.386"/>
			<path style="fill:#A0B0FF;" d="M65.916,258.096c0,2.502-2.028,4.531-4.531,4.531c-2.502,0-4.531-2.028-4.531-4.531
				s2.028-4.531,4.531-4.531C63.888,253.566,65.916,255.594,65.916,258.096z"/>
			<path style="fill:#A0B0FF;" d="M213.044,351.048c0,2.502-2.028,4.531-4.531,4.531c-2.502,0-4.531-2.029-4.531-4.531
				s2.028-4.531,4.531-4.531C211.016,346.517,213.044,348.545,213.044,351.048z"/>
			<path style="fill:#A0B0FF;" d="M432.841,304.642c-0.203,0-0.388,0.169-0.528,0.446c-0.124,0.246-0.365,0.411-0.64,0.411h-0.213
				c-0.355,0-0.658-0.251-0.731-0.599c-0.18-0.858-0.518-1.659-0.981-2.369c-0.195-0.298-0.159-0.69,0.093-0.942l0.091-0.091
				c0.215-0.215,0.535-0.268,0.82-0.161c0.325,0.122,0.603,0.12,0.757-0.034c0.31-0.31,0.006-1.117-0.679-1.803
				c-0.685-0.685-1.492-0.99-1.803-0.679c-0.144,0.144-0.155,0.394-0.058,0.689c0.086,0.262,0.033,0.549-0.162,0.744l-0.151,0.151
				c-0.252,0.252-0.644,0.288-0.942,0.093c-0.71-0.464-1.511-0.802-2.369-0.981c-0.348-0.073-0.599-0.376-0.599-0.731v-0.128
				c0-0.304,0.189-0.568,0.466-0.694c0.316-0.143,0.511-0.341,0.511-0.56c0-0.439-0.786-0.794-1.755-0.794
				c-0.969,0-1.755,0.356-1.755,0.794c0,0.203,0.169,0.388,0.446,0.528c0.246,0.124,0.411,0.365,0.411,0.64v0.213
				c0,0.355-0.251,0.658-0.599,0.731c-0.858,0.18-1.659,0.517-2.369,0.981c-0.298,0.195-0.69,0.159-0.942-0.093l-0.091-0.091
				c-0.215-0.215-0.268-0.535-0.161-0.82c0.122-0.325,0.121-0.603-0.034-0.757c-0.31-0.31-1.117-0.006-1.803,0.679
				c-0.685,0.685-0.99,1.492-0.679,1.803c0.143,0.144,0.394,0.155,0.689,0.058c0.262-0.086,0.549-0.033,0.744,0.162l0.151,0.151
				c0.252,0.252,0.288,0.644,0.093,0.942c-0.464,0.71-0.802,1.51-0.981,2.369c-0.073,0.348-0.376,0.599-0.731,0.599h-0.128
				c-0.304,0-0.568-0.189-0.694-0.466c-0.143-0.316-0.341-0.511-0.56-0.511c-0.439,0-0.794,0.786-0.794,1.755
				c0,0.969,0.356,1.755,0.794,1.755c0.203,0,0.388-0.169,0.528-0.446c0.124-0.246,0.365-0.411,0.64-0.411h0.213
				c0.355,0,0.658,0.251,0.731,0.599c0.18,0.858,0.517,1.659,0.981,2.369c0.195,0.298,0.159,0.69-0.093,0.942l-0.091,0.091
				c-0.215,0.215-0.535,0.268-0.82,0.161c-0.325-0.122-0.603-0.12-0.757,0.034c-0.31,0.31-0.006,1.117,0.679,1.803
				c0.685,0.685,1.492,0.989,1.803,0.679c0.144-0.143,0.155-0.394,0.058-0.689c-0.086-0.262-0.033-0.549,0.162-0.744l0.151-0.151
				c0.252-0.252,0.644-0.287,0.942-0.093c0.71,0.464,1.511,0.802,2.369,0.982c0.348,0.073,0.599,0.376,0.599,0.731v0.128
				c0,0.305-0.189,0.568-0.466,0.694c-0.316,0.143-0.511,0.341-0.511,0.56c0,0.439,0.786,0.794,1.755,0.794
				c0.969,0,1.755-0.356,1.755-0.794c0-0.203-0.169-0.388-0.446-0.528c-0.246-0.124-0.411-0.365-0.411-0.64v-0.213
				c0-0.355,0.251-0.658,0.599-0.731c0.858-0.18,1.659-0.518,2.369-0.982c0.298-0.195,0.69-0.159,0.942,0.093l0.091,0.091
				c0.215,0.215,0.268,0.535,0.161,0.82c-0.122,0.325-0.121,0.603,0.034,0.757c0.31,0.31,1.117,0.006,1.803-0.679
				c0.685-0.685,0.989-1.492,0.679-1.803c-0.143-0.144-0.394-0.155-0.689-0.058c-0.262,0.086-0.549,0.033-0.744-0.162l-0.151-0.151
				c-0.252-0.252-0.288-0.644-0.093-0.942c0.464-0.71,0.802-1.511,0.981-2.369c0.073-0.348,0.376-0.599,0.731-0.599h0.128
				c0.305,0,0.568,0.189,0.694,0.466c0.143,0.316,0.341,0.511,0.56,0.511c0.439,0,0.794-0.786,0.794-1.755
				S433.28,304.642,432.841,304.642z"/>
			<path style="opacity:0.7;fill:#FFFFFF;" d="M255.849,191.698c-0.203,0-0.388,0.169-0.528,0.446
				c-0.124,0.246-0.365,0.411-0.64,0.411h-0.213c-0.355,0-0.658-0.251-0.731-0.599c-0.18-0.858-0.517-1.658-0.981-2.369
				c-0.195-0.298-0.159-0.69,0.093-0.942l0.091-0.091c0.215-0.215,0.535-0.268,0.82-0.161c0.325,0.122,0.602,0.12,0.757-0.034
				c0.31-0.31,0.006-1.117-0.679-1.803c-0.685-0.685-1.492-0.99-1.803-0.679c-0.144,0.144-0.155,0.394-0.058,0.689
				c0.086,0.262,0.033,0.549-0.162,0.744l-0.151,0.151c-0.252,0.252-0.644,0.287-0.942,0.093c-0.71-0.464-1.51-0.802-2.369-0.982
				c-0.348-0.073-0.599-0.376-0.599-0.731v-0.128c0-0.305,0.189-0.568,0.467-0.694c0.316-0.143,0.511-0.341,0.511-0.56
				c0-0.439-0.786-0.794-1.755-0.794c-0.969,0-1.755,0.356-1.755,0.794c0,0.203,0.169,0.388,0.446,0.528
				c0.246,0.124,0.411,0.365,0.411,0.64v0.213c0,0.355-0.251,0.658-0.599,0.731c-0.858,0.18-1.659,0.518-2.369,0.982
				c-0.298,0.195-0.69,0.159-0.942-0.093l-0.091-0.091c-0.215-0.215-0.268-0.535-0.161-0.82c0.122-0.325,0.12-0.603-0.034-0.757
				c-0.31-0.31-1.117-0.006-1.803,0.679c-0.685,0.685-0.99,1.492-0.679,1.803c0.144,0.144,0.394,0.155,0.689,0.058
				c0.262-0.086,0.549-0.033,0.744,0.162l0.151,0.151c0.252,0.252,0.288,0.644,0.093,0.942c-0.464,0.71-0.802,1.51-0.981,2.369
				c-0.073,0.348-0.376,0.599-0.731,0.599h-0.128c-0.305,0-0.568-0.189-0.694-0.466c-0.143-0.316-0.341-0.511-0.559-0.511
				c-0.439,0-0.794,0.786-0.794,1.755c0,0.969,0.356,1.755,0.794,1.755c0.203,0,0.388-0.169,0.528-0.446
				c0.124-0.246,0.365-0.411,0.64-0.411h0.213c0.355,0,0.658,0.251,0.731,0.599c0.18,0.858,0.518,1.658,0.981,2.369
				c0.195,0.298,0.159,0.69-0.093,0.942l-0.091,0.091c-0.215,0.215-0.535,0.268-0.82,0.161c-0.325-0.122-0.603-0.12-0.757,0.034
				c-0.31,0.31-0.006,1.117,0.679,1.803c0.685,0.685,1.492,0.99,1.803,0.679c0.143-0.144,0.155-0.394,0.058-0.689
				c-0.086-0.262-0.033-0.549,0.162-0.744l0.151-0.151c0.252-0.252,0.644-0.287,0.942-0.093c0.71,0.464,1.51,0.802,2.369,0.982
				c0.348,0.073,0.599,0.376,0.599,0.731v0.128c0,0.305-0.189,0.568-0.466,0.694c-0.316,0.143-0.511,0.341-0.511,0.56
				c0,0.439,0.786,0.794,1.755,0.794c0.969,0,1.755-0.356,1.755-0.794c0-0.203-0.169-0.388-0.446-0.528
				c-0.246-0.124-0.411-0.365-0.411-0.64v-0.213c0-0.355,0.251-0.658,0.599-0.731c0.858-0.18,1.658-0.518,2.369-0.982
				c0.298-0.195,0.69-0.159,0.942,0.093l0.091,0.091c0.215,0.215,0.268,0.535,0.161,0.82c-0.122,0.325-0.12,0.603,0.034,0.757
				c0.31,0.31,1.117,0.006,1.803-0.679c0.685-0.685,0.989-1.492,0.679-1.803c-0.144-0.144-0.394-0.155-0.689-0.058
				c-0.262,0.086-0.549,0.033-0.744-0.162l-0.151-0.151c-0.252-0.252-0.288-0.644-0.093-0.942c0.464-0.71,0.802-1.51,0.981-2.369
				c0.073-0.348,0.376-0.599,0.731-0.599h0.128c0.305,0,0.568,0.189,0.694,0.466c0.143,0.316,0.341,0.511,0.559,0.511
				c0.439,0,0.794-0.786,0.794-1.755C256.643,192.484,256.287,191.698,255.849,191.698z"/>
			<path style="fill:#FFFFFF;" d="M421.249,149.651c-0.248,0-0.474,0.206-0.645,0.545c-0.152,0.3-0.446,0.503-0.782,0.503h-0.26
				c-0.434,0-0.804-0.307-0.893-0.732c-0.22-1.049-0.632-2.026-1.199-2.894c-0.238-0.364-0.195-0.843,0.113-1.151l0.111-0.111
				c0.263-0.263,0.654-0.327,1.002-0.196c0.397,0.149,0.736,0.147,0.925-0.042c0.379-0.379,0.008-1.365-0.83-2.202
				c-0.837-0.837-1.823-1.209-2.202-0.83c-0.175,0.175-0.189,0.481-0.071,0.841c0.105,0.32,0.04,0.67-0.198,0.909l-0.184,0.184
				c-0.308,0.308-0.786,0.351-1.151,0.113c-0.868-0.567-1.845-0.979-2.894-1.199c-0.425-0.089-0.732-0.459-0.732-0.893v-0.157
				c0-0.372,0.231-0.694,0.57-0.847c0.386-0.175,0.625-0.417,0.625-0.684c0-0.536-0.96-0.97-2.144-0.97
				c-1.184,0-2.144,0.434-2.144,0.97c0,0.248,0.206,0.474,0.545,0.645c0.3,0.152,0.502,0.446,0.502,0.782v0.26
				c0,0.434-0.307,0.804-0.731,0.893c-1.049,0.22-2.026,0.632-2.894,1.199c-0.365,0.238-0.843,0.195-1.151-0.113l-0.111-0.111
				c-0.263-0.263-0.327-0.654-0.196-1.002c0.149-0.397,0.147-0.736-0.042-0.925c-0.379-0.379-1.365-0.007-2.202,0.83
				c-0.837,0.837-1.209,1.823-0.83,2.202c0.175,0.175,0.481,0.189,0.841,0.071c0.32-0.105,0.67-0.04,0.908,0.198l0.184,0.184
				c0.308,0.308,0.351,0.786,0.113,1.151c-0.567,0.868-0.979,1.845-1.199,2.894c-0.089,0.425-0.459,0.732-0.893,0.732h-0.157
				c-0.372,0-0.694-0.231-0.847-0.57c-0.175-0.386-0.417-0.624-0.683-0.624c-0.536,0-0.97,0.96-0.97,2.144
				c0,1.184,0.434,2.144,0.97,2.144c0.248,0,0.474-0.206,0.645-0.545c0.152-0.3,0.446-0.503,0.782-0.503h0.26
				c0.434,0,0.804,0.307,0.893,0.732c0.22,1.049,0.632,2.026,1.199,2.894c0.238,0.364,0.195,0.843-0.113,1.151l-0.111,0.111
				c-0.263,0.263-0.654,0.327-1.002,0.196c-0.397-0.149-0.736-0.147-0.925,0.042c-0.379,0.379-0.007,1.365,0.83,2.202
				c0.837,0.837,1.823,1.209,2.202,0.83c0.175-0.175,0.189-0.481,0.071-0.841c-0.105-0.32-0.04-0.67,0.198-0.908l0.184-0.184
				c0.308-0.308,0.786-0.351,1.151-0.113c0.868,0.567,1.845,0.979,2.894,1.199c0.425,0.089,0.731,0.459,0.731,0.893v0.157
				c0,0.372-0.231,0.693-0.57,0.847c-0.386,0.175-0.624,0.417-0.624,0.684c0,0.536,0.96,0.97,2.144,0.97
				c1.184,0,2.144-0.434,2.144-0.97c0-0.248-0.206-0.474-0.545-0.645c-0.3-0.152-0.503-0.446-0.503-0.782v-0.26
				c0-0.434,0.307-0.804,0.732-0.893c1.049-0.22,2.026-0.632,2.894-1.199c0.364-0.238,0.843-0.194,1.151,0.113l0.111,0.111
				c0.263,0.263,0.327,0.654,0.196,1.002c-0.149,0.397-0.147,0.736,0.042,0.925c0.379,0.379,1.365,0.007,2.202-0.83
				s1.209-1.823,0.83-2.202c-0.175-0.175-0.481-0.189-0.841-0.071c-0.32,0.105-0.671,0.04-0.909-0.198l-0.184-0.184
				c-0.308-0.308-0.351-0.786-0.113-1.151c0.567-0.868,0.979-1.845,1.199-2.894c0.089-0.425,0.459-0.732,0.893-0.732h0.157
				c0.372,0,0.694,0.231,0.847,0.57c0.175,0.386,0.417,0.624,0.684,0.624c0.536,0,0.97-0.96,0.97-2.144
				S421.784,149.651,421.249,149.651z"/>
			<path style="fill:#A0B0FF;" d="M163.534,92.602c-0.392,0-0.749,0.326-1.02,0.862c-0.24,0.475-0.705,0.795-1.237,0.795h-0.412
				c-0.687,0-1.272-0.485-1.412-1.157c-0.347-1.658-1-3.204-1.896-4.577c-0.376-0.576-0.308-1.333,0.179-1.82l0.176-0.176
				c0.416-0.416,1.034-0.517,1.585-0.31c0.627,0.235,1.164,0.233,1.463-0.066c0.599-0.599,0.012-2.159-1.312-3.483
				c-1.324-1.324-2.883-1.912-3.483-1.312c-0.277,0.277-0.299,0.761-0.112,1.331c0.166,0.506,0.064,1.06-0.313,1.437l-0.291,0.291
				c-0.487,0.487-1.244,0.556-1.82,0.179c-1.373-0.896-2.918-1.549-4.577-1.896c-0.672-0.141-1.157-0.726-1.157-1.412v-0.248
				c0-0.588,0.365-1.097,0.901-1.34c0.61-0.277,0.988-0.659,0.988-1.081c0-0.848-1.518-1.535-3.391-1.535s-3.391,0.687-3.391,1.535
				c0,0.392,0.326,0.749,0.862,1.02c0.475,0.24,0.795,0.705,0.795,1.237v0.412c0,0.687-0.485,1.272-1.157,1.412
				c-1.658,0.347-3.204,1-4.577,1.896c-0.576,0.376-1.333,0.308-1.82-0.179l-0.176-0.176c-0.416-0.416-0.517-1.034-0.31-1.585
				c0.236-0.627,0.233-1.164-0.066-1.463c-0.599-0.599-2.159-0.012-3.483,1.312c-1.324,1.324-1.912,2.883-1.312,3.483
				c0.277,0.277,0.761,0.299,1.331,0.112c0.506-0.166,1.06-0.063,1.437,0.313l0.291,0.291c0.487,0.487,0.556,1.244,0.179,1.82
				c-0.896,1.372-1.549,2.918-1.896,4.577c-0.141,0.672-0.726,1.157-1.412,1.157h-0.248c-0.588,0-1.097-0.365-1.34-0.901
				c-0.277-0.61-0.659-0.988-1.081-0.988c-0.848,0-1.535,1.518-1.535,3.391c0,1.873,0.687,3.391,1.535,3.391
				c0.392,0,0.749-0.326,1.02-0.862c0.24-0.475,0.705-0.795,1.237-0.795h0.412c0.687,0,1.272,0.485,1.412,1.157
				c0.347,1.659,1,3.204,1.896,4.577c0.376,0.576,0.308,1.334-0.179,1.82l-0.176,0.176c-0.416,0.416-1.034,0.517-1.585,0.31
				c-0.627-0.236-1.164-0.233-1.463,0.066c-0.599,0.599-0.012,2.159,1.312,3.483c1.324,1.324,2.883,1.912,3.483,1.312
				c0.277-0.277,0.299-0.761,0.112-1.331c-0.166-0.506-0.064-1.06,0.313-1.437l0.291-0.291c0.487-0.487,1.244-0.556,1.82-0.179
				c1.373,0.896,2.918,1.549,4.577,1.896c0.672,0.141,1.157,0.726,1.157,1.412v0.248c0,0.588-0.365,1.097-0.901,1.34
				c-0.61,0.277-0.988,0.659-0.988,1.081c0,0.848,1.518,1.535,3.391,1.535c1.872,0,3.391-0.687,3.391-1.535
				c0-0.392-0.326-0.749-0.862-1.02c-0.475-0.24-0.795-0.705-0.795-1.237v-0.412c0-0.687,0.485-1.272,1.157-1.412
				c1.658-0.347,3.204-1,4.577-1.896c0.576-0.376,1.333-0.308,1.82,0.179l0.176,0.176c0.416,0.416,0.517,1.034,0.31,1.585
				c-0.236,0.627-0.233,1.164,0.066,1.463c0.599,0.599,2.159,0.012,3.483-1.312c1.324-1.324,1.912-2.883,1.312-3.483
				c-0.277-0.277-0.76-0.299-1.331-0.112c-0.506,0.166-1.06,0.063-1.437-0.313l-0.291-0.291c-0.487-0.487-0.555-1.244-0.179-1.82
				c0.896-1.372,1.549-2.918,1.896-4.577c0.141-0.672,0.726-1.157,1.412-1.157h0.248c0.588,0,1.097,0.365,1.34,0.901
				c0.277,0.61,0.659,0.988,1.081,0.988c0.848,0,1.535-1.518,1.535-3.391C165.069,94.12,164.382,92.602,163.534,92.602z"/>
			<path style="fill:#A0B0FF;" d="M297.84,64.295c-0.259,0-0.495,0.215-0.674,0.569c-0.159,0.314-0.465,0.525-0.817,0.525h-0.272
				c-0.453,0-0.84-0.32-0.932-0.764c-0.229-1.095-0.66-2.116-1.252-3.022c-0.249-0.381-0.203-0.881,0.118-1.202l0.116-0.116
				c0.275-0.275,0.683-0.341,1.046-0.205c0.414,0.155,0.769,0.154,0.966-0.044c0.396-0.396,0.008-1.425-0.867-2.299
				c-0.874-0.874-1.904-1.262-2.299-0.866c-0.183,0.183-0.198,0.502-0.074,0.879c0.11,0.334,0.042,0.7-0.207,0.949l-0.192,0.192
				c-0.321,0.321-0.821,0.367-1.202,0.118c-0.906-0.592-1.927-1.023-3.022-1.252c-0.444-0.093-0.764-0.479-0.764-0.932V56.66
				c0-0.389,0.241-0.724,0.595-0.885c0.403-0.183,0.652-0.435,0.652-0.714c0-0.56-1.002-1.013-2.239-1.013
				c-1.236,0-2.239,0.454-2.239,1.013c0,0.259,0.215,0.495,0.569,0.674c0.314,0.159,0.525,0.465,0.525,0.817v0.272
				c0,0.453-0.32,0.84-0.764,0.932c-1.095,0.229-2.116,0.66-3.022,1.252c-0.381,0.249-0.88,0.203-1.202-0.118l-0.116-0.116
				c-0.275-0.275-0.341-0.683-0.205-1.046c0.155-0.414,0.154-0.769-0.044-0.966c-0.396-0.396-1.425-0.008-2.299,0.867
				c-0.874,0.874-1.262,1.904-0.866,2.299c0.183,0.183,0.502,0.198,0.879,0.074c0.334-0.11,0.7-0.042,0.949,0.207l0.192,0.192
				c0.321,0.321,0.367,0.821,0.118,1.202c-0.592,0.906-1.023,1.927-1.252,3.022c-0.093,0.444-0.479,0.764-0.933,0.764h-0.164
				c-0.389,0-0.724-0.241-0.885-0.595c-0.183-0.403-0.435-0.652-0.714-0.652c-0.56,0-1.013,1.002-1.013,2.239
				c0,1.236,0.454,2.239,1.013,2.239c0.259,0,0.495-0.215,0.674-0.569c0.159-0.314,0.465-0.525,0.817-0.525h0.272
				c0.453,0,0.84,0.32,0.933,0.764c0.229,1.095,0.66,2.116,1.252,3.022c0.248,0.381,0.203,0.88-0.118,1.202l-0.116,0.116
				c-0.275,0.275-0.683,0.341-1.046,0.205c-0.414-0.156-0.769-0.154-0.966,0.044c-0.396,0.396-0.008,1.425,0.867,2.299
				c0.874,0.874,1.904,1.262,2.299,0.867c0.183-0.183,0.198-0.502,0.074-0.879c-0.11-0.334-0.042-0.7,0.207-0.949l0.192-0.192
				c0.321-0.321,0.821-0.367,1.202-0.118c0.906,0.592,1.927,1.022,3.022,1.252c0.444,0.093,0.764,0.479,0.764,0.932v0.164
				c0,0.389-0.241,0.724-0.595,0.885c-0.403,0.183-0.652,0.435-0.652,0.714c0,0.56,1.002,1.013,2.239,1.013
				c1.236,0,2.239-0.454,2.239-1.013c0-0.259-0.215-0.495-0.569-0.674c-0.314-0.159-0.525-0.465-0.525-0.817V76.09
				c0-0.453,0.32-0.84,0.764-0.932c1.095-0.229,2.116-0.66,3.022-1.252c0.381-0.249,0.88-0.203,1.202,0.118l0.116,0.116
				c0.275,0.275,0.341,0.683,0.205,1.046c-0.155,0.414-0.154,0.769,0.043,0.966c0.396,0.396,1.425,0.008,2.299-0.867
				c0.874-0.874,1.262-1.904,0.867-2.299c-0.183-0.183-0.502-0.198-0.879-0.074c-0.334,0.11-0.7,0.042-0.949-0.207l-0.192-0.192
				c-0.322-0.321-0.367-0.821-0.118-1.202c0.592-0.906,1.023-1.927,1.252-3.022c0.093-0.444,0.479-0.764,0.932-0.764h0.164
				c0.389,0,0.724,0.241,0.885,0.595c0.183,0.403,0.435,0.652,0.714,0.652c0.56,0,1.013-1.002,1.013-2.239
				C298.853,65.297,298.4,64.295,297.84,64.295z"/>
		</g>
		<g>
			<path style="fill:#A0B0FF;" d="M433.718,243.737h-46.536c-1.411,0-2.554-1.144-2.554-2.554v-21.837
				c0-1.411,1.144-2.555,2.554-2.555h46.536c1.411,0,2.555,1.144,2.555,2.555v21.837
				C436.273,242.593,435.129,243.737,433.718,243.737z"/>
			<g>
				<path style="fill:#FFFFFF;" d="M415.633,223.596c-3.013-2.774-5.371-2.458-5.371-2.458s-2.358-0.316-5.371,2.458
					c-2.885,2.656-9.694,3.16-9.694,3.16s1.252,7.122,2.227,9.973c0,0,0.205,0.09,0.577,0.242c7.895,3.203,16.625,3.203,24.52,0
					c0.373-0.151,0.577-0.242,0.577-0.242c0.975-2.851,2.227-9.973,2.227-9.973S418.518,226.252,415.633,223.596z"/>
				<g>
					<path style="fill:#FFFFFF;" d="M391.197,226.028c1.794,0,4.407,1.465,5.015,1.821l2.918,4.889l-1.972,3.216
						c-4.733-1.87-7.093-5.929-7.258-8.301c-0.052-0.749,0.116-1.281,0.462-1.46C390.574,226.084,390.855,226.028,391.197,226.028
						 M391.197,225.396c-0.42,0-0.804,0.07-1.126,0.236c-2.252,1.165,0.17,8.568,7.354,11.097l2.443-3.986l-3.195-5.355
						C396.673,227.388,393.435,225.396,391.197,225.396L391.197,225.396z"/>
				</g>
				<g>
					<path style="fill:#FFFFFF;" d="M429.328,226.028L429.328,226.028c0.342,0,0.623,0.056,0.836,0.166
						c0.346,0.179,0.514,0.711,0.462,1.46c-0.165,2.372-2.525,6.431-7.258,8.301l-1.972-3.216l2.918-4.89
						C424.921,227.493,427.53,226.028,429.328,226.028 M429.328,225.396c-2.238,0-5.476,1.992-5.476,1.992l-3.195,5.355l2.443,3.986
						c7.184-2.528,9.606-9.932,7.354-11.097C430.133,225.466,429.748,225.396,429.328,225.396L429.328,225.396z"/>
				</g>
			</g>
		</g>
		
			<line style="fill:none;stroke:#FFFFFF;stroke-width:2;stroke-linecap:round;stroke-miterlimit:10;" x1="41.5" y1="439.625" x2="458.5" y2="439.625"/>
	</g>
</g>
</svg>
